<svg xmlns="http://www.w3.org/2000/svg" viewBox="0 0 191.99 159.65"><defs><style>.cls-1{fill:#d9eaf1;}.cls-2{fill:none;stroke:#d9eaf1;}.cls-2,.cls-3{stroke-miterlimit:10;stroke-width:3px;}.cls-3{fill:#fff;stroke:#33ade9;}</style></defs><title>Asset 5</title><g id="Layer_2" data-name="Layer 2"><g id="Layer_1-2" data-name="Layer 1"><path class="cls-1" d="M39.91,78.24l21.54,55.94a32,32,0,0,0,54.81,8.62l37.67-46.63A32,32,0,0,0,134,44.39L74.78,35.08A32,32,0,0,0,39.91,78.24Z"/><rect class="cls-1" x="70.45" y="0.93" width="9.88" height="2.53" rx="1.27" ry="1.27" transform="translate(1.9 19.14) rotate(-14.65)"/><rect class="cls-1" x="121.16" y="156.07" width="9.86" height="2.51" rx="1.25" ry="1.25" transform="translate(-40.41 43.63) rotate(-16.96)"/><path class="cls-1" d="M10.18,76.61,7.46,74.06,10,71.53a1.42,1.42,0,1,0-2-2l-2.6,2.6-3-2.79A1.42,1.42,0,1,0,.45,71.4l2.92,2.73L.45,77.05a1.42,1.42,0,1,0,2,2l3-3,2.79,2.61a1.42,1.42,0,1,0,1.95-2.08Z"/><path class="cls-1" d="M175.58,14l-2.72-2.54L175.4,9a1.42,1.42,0,1,0-2-2l-2.6,2.6-3-2.79a1.42,1.42,0,1,0-1.95,2.08l2.92,2.73-2.92,2.92a1.42,1.42,0,0,0,2,2l3-3,2.79,2.61A1.42,1.42,0,1,0,175.58,14Z"/><rect class="cls-2" x="15.31" y="137.55" width="8.45" height="8.45" rx="2" ry="2" transform="translate(-74.57 33.95) rotate(-33.27)"/><rect class="cls-2" x="181.17" y="102.58" width="8.45" height="8.45" rx="2" ry="2" transform="matrix(0.84, -0.55, 0.55, 0.84, -28.2, 119.2)"/></g><g id="Layer_2-2" data-name="Layer 2"><path class="cls-3" d="M107.8,92.25l16.35,9.44a2.36,2.36,0,0,0,3.55-2V80.77a2.36,2.36,0,0,0-3.55-2L107.8,88.16A2.36,2.36,0,0,0,107.8,92.25Z"/><rect class="cls-3" x="70.05" y="72.67" width="45.23" height="37.02" rx="8" ry="8"/><circle class="cls-3" cx="105.27" cy="80.48" r="2.01"/></g></g></svg>