<svg xmlns="http://www.w3.org/2000/svg" viewBox="0 0 512.3 574.35"><defs><style>.cls-1{fill:#ef3b62;}.cls-2{fill:#fff;stroke:#ef3b62;stroke-miterlimit:10;stroke-width:10px;}</style></defs><title>Asset 1</title><g id="Layer_2" data-name="Layer 2"><g id="Layer_1-2" data-name="Layer 1"><path class="cls-1" d="M487.39,10.92A15,15,0,0,0,468.87.57L297.41,49l-115,32.5L10.92,130A15,15,0,0,0,.57,148.49l24.35,86.16A15,15,0,0,0,43.43,245l157-44.37A15,15,0,0,1,219,211l96.9,342.92a15,15,0,0,0,18.51,10.36l86.16-24.35a15,15,0,0,0,10.36-18.51L334,178.48A15,15,0,0,1,344.35,160l157-44.37a15,15,0,0,0,10.36-18.51Z"/><path class="cls-2" d="M110,295.11c9.39,28.44,30.6,81.07,28.82,106.92s-32.49,79.53-33.62,91.23c-1.31,13.52-.9,22.65-1,29.35-.06,5.47-3,19.55-6.66,28.18A8,8,0,0,0,101,560.86l8,4.49a8.47,8.47,0,0,0,3.31,1c10.88,1.08,68.67,6.44,83-.66,4-2,3.64-5,1-8.49-8.08-10.52-37.63-25.42-38.09-29.2-.61-5,14.65-33.52,14.65-33.52s18.55-33.08,23.29-35.38c4.21-2-2.25,28.63-1.44,36.66.67,6.68,9.17,44.7,13,61.52a10.43,10.43,0,0,0,10,8.13l39.8.58s22.73,2.16,32-3.9,17.67-25.82,6.5-28.4c-8.77-2-28.57-4.54-36.64-5.52a7.44,7.44,0,0,1-5.43-3.47c-3.45-5.58-10.42-17.14-10.77-20.05-.47-3.89-11.26-34.2-12.26-43.86-.76-7.42,6.93-27.74,8.44-35.93,1-5.4,6.82-33,5.14-38.7s-9.83-77.43-14.56-87a41.1,41.1,0,0,1-3.48-10.35,8.56,8.56,0,0,1,6-9.85c15.31-4.44,52.13-14.86,62.15-15.31,12.75-.57,57,13.68,65.94,8.74,8.3-4.59,17.09-4.08,14-29.74s-45.78-22.61-45.78-22.61L220.77,233.28l-88.88.7-22.79-11.53Z"/><path class="cls-2" d="M261.38,129.71a97.88,97.88,0,1,1-109-85.3A97.88,97.88,0,0,1,261.38,129.71Z"/></g></g></svg>